HIERARCHY
ROOT joint_Root
{
	OFFSET 0.0 0.0 0.0
	CHANNELS 6 Xposition Yposition Zposition Zrotation Xrotation Yrotation 
	JOINT Hips
	{
		OFFSET -0.726466 93.3139 -2.00062
		CHANNELS 6 Xposition Yposition Zposition Zrotation Xrotation Yrotation 
		JOINT Spine
		{
			OFFSET 15.7357 0.0 0.0
			CHANNELS 6 Xposition Yposition Zposition Zrotation Xrotation Yrotation 
			JOINT Chest
			{
				OFFSET 8.98455 -0.406207 0.0
				CHANNELS 6 Xposition Yposition Zposition Zrotation Xrotation Yrotation 
				JOINT Neck
				{
					OFFSET 16.3773 0.0 0.0
					CHANNELS 6 Xposition Yposition Zposition Zrotation Xrotation Yrotation 
					JOINT Head
					{
						OFFSET 6.45672 0.0 0.0
						CHANNELS 6 Xposition Yposition Zposition Zrotation Xrotation Yrotation 
						End Site
						{
							OFFSET 0.0 0.0 0.0
						}
					}
				}
				JOINT Shoulder_L
				{
					OFFSET 12.9942 -0.242716 4.98039
					CHANNELS 6 Xposition Yposition Zposition Zrotation Xrotation Yrotation 
					JOINT UpperArm_L
					{
						OFFSET 5.34809 0.0 0.0
						CHANNELS 6 Xposition Yposition Zposition Zrotation Xrotation Yrotation 
						JOINT LowerArm_L
						{
							OFFSET 24.3286 1.87007e-05 0.0
							CHANNELS 6 Xposition Yposition Zposition Zrotation Xrotation Yrotation 
							JOINT Hand_L
							{
								OFFSET 22.2916 0.0 0.0
								CHANNELS 6 Xposition Yposition Zposition Zrotation Xrotation Yrotation 
								End Site
								{
									OFFSET 0.0 0.0 0.0
								}
							}
						}
					}
				}
				JOINT Shoulder_R
				{
					OFFSET 12.9945 -0.242716 -4.98039
					CHANNELS 6 Xposition Yposition Zposition Zrotation Xrotation Yrotation 
					JOINT UpperArm_R
					{
						OFFSET -5.34813 0.0 0.0
						CHANNELS 6 Xposition Yposition Zposition Zrotation Xrotation Yrotation 
						JOINT LowerArm_R
						{
							OFFSET -24.3289 0.000322201 0.0
							CHANNELS 6 Xposition Yposition Zposition Zrotation Xrotation Yrotation 
							JOINT Hand_R
							{
								OFFSET -22.2915 -0.000108084 0.0
								CHANNELS 6 Xposition Yposition Zposition Zrotation Xrotation Yrotation 
								End Site
								{
									OFFSET 0.0 0.0 0.0
								}
							}
						}
					}
				}
			}
		}
		JOINT UpperLeg_L
		{
			OFFSET -2.19248 -6.46944 0.0
			CHANNELS 6 Xposition Yposition Zposition Zrotation Xrotation Yrotation 
			JOINT LowerLeg_L
			{
				OFFSET 39.0811 0.0 -1.23785e-05
				CHANNELS 6 Xposition Yposition Zposition Zrotation Xrotation Yrotation 
				JOINT Foot_L
				{
					OFFSET 40.9854 0.0 -1.26872e-05
					CHANNELS 6 Xposition Yposition Zposition Zrotation Xrotation Yrotation 
					JOINT Toes_L
					{
						OFFSET 11.7543 0.0 0.0
						CHANNELS 6 Xposition Yposition Zposition Zrotation Xrotation Yrotation 
						End Site
						{
							OFFSET 0.0 0.0 0.0
						}
					}
				}
			}
		}
		JOINT UpperLeg_R
		{
			OFFSET -2.19251 6.46944 0.0
			CHANNELS 6 Xposition Yposition Zposition Zrotation Xrotation Yrotation 
			JOINT LowerLeg_R
			{
				OFFSET -39.0811 -0.00228153 -0.0401928
				CHANNELS 6 Xposition Yposition Zposition Zrotation Xrotation Yrotation 
				JOINT Foot_R
				{
					OFFSET -40.9854 0.0 0.0
					CHANNELS 6 Xposition Yposition Zposition Zrotation Xrotation Yrotation 
					JOINT Toes_R
					{
						OFFSET -11.7543 0.0 0.0
						CHANNELS 6 Xposition Yposition Zposition Zrotation Xrotation Yrotation 
						End Site
						{
							OFFSET 0.0 0.0 0.0
						}
					}
				}
			}
		}
	}
}
MOTION
Frames:	6
Frame Time:	0.0333333
0.000000 0.000000 0.000000 0.000000 0.000000 -0.000000 -3.849060 92.049500 -1.519390 86.988300 -1.503360 3.644830 15.735700 0.000005 -0.000001 70.123900 84.485400 -65.142900 8.984550 -0.406207 -0.000000 2.803910 -3.961380 10.052400 16.377300 -0.000001 -0.000001 2.419080 -1.113250 -0.905561 6.456720 -0.000001 -0.000000 -1.133950 -1.435300 13.606400 12.994200 -0.242716 4.980390 -84.794700 -10.363100 -63.140500 5.348090 -0.000007 -0.000001 -51.640300 -60.593100 -72.676100 24.328600 0.000019 0.000005 0.918223 1.438770 -32.554300 22.291600 -0.000001 0.000005 18.401400 5.542640 -8.363730 12.994500 -0.242716 -4.980390 90.820800 -2.204180 -69.569800 -5.348130 -0.000001 -0.000004 -61.387900 66.457000 13.050500 -24.328900 0.000322 -0.000009 20.367300 1.613520 -85.663600 -22.291500 -0.000108 -0.000004 25.548100 5.666760 -16.906800 -2.192480 -6.469440 -0.000000 -166.016000 -17.351200 -2.053500 39.081100 -0.000007 -0.000012 -0.161310 0.442160 20.043300 40.985400 -0.000006 -0.000013 -9.084810 -2.754480 -61.398300 11.754300 -0.000000 0.000003 -0.000103 -0.001052 -16.617900 -2.192510 6.469440 -0.000001 176.970000 22.533300 178.952000 -39.081100 -0.002282 -0.040193 -0.083199 0.235057 20.207800 -40.985400 0.000008 0.000006 -3.062850 1.181030 -63.803800 -11.754300 -0.000006 -0.000006 -0.003239 -0.043276 -18.333200
0.000000 0.000000 0.000000 0.000000 0.000000 -0.000000 -3.854460 92.054900 -1.535560 86.966600 -1.506000 3.633170 15.735700 0.000005 -0.000001 70.479500 84.449000 -65.496200 8.984550 -0.406207 -0.000000 2.893900 -3.917370 10.058800 16.377300 -0.000001 -0.000001 2.260140 -1.246230 -0.766194 6.456720 -0.000001 -0.000000 -1.162340 -1.657370 13.661200 12.994200 -0.242716 4.980390 -84.812200 -10.336800 -63.160700 5.348090 -0.000007 -0.000001 -53.738500 -60.641700 -71.520900 24.328600 0.000019 0.000005 1.510350 2.930530 -27.282800 22.291600 -0.000001 0.000005 18.315600 5.516300 -7.204720 12.994500 -0.242716 -4.980390 90.843200 -2.264270 -69.568500 -5.348130 -0.000001 -0.000004 -61.517200 66.496400 13.041300 -24.328900 0.000322 -0.000009 20.411100 1.633610 -85.620100 -22.291500 -0.000108 -0.000004 25.595900 5.667430 -17.000300 -2.192480 -6.469440 -0.000000 -165.994000 -17.318100 -2.062130 39.081100 -0.000007 -0.000012 -0.160524 0.440879 20.006800 40.985400 -0.000006 -0.000013 -9.093790 -2.768900 -61.368800 11.754300 -0.000000 0.000003 -0.000088 -0.000920 -16.612900 -2.192510 6.469440 -0.000001 177.001000 22.570500 178.952000 -39.081100 -0.002282 -0.040193 -0.082134 0.232780 20.158600 -40.985400 0.000008 0.000006 -3.042570 1.237670 -63.767800 -11.754300 -0.000006 -0.000006 -0.003239 -0.043274 -18.333100
0.000000 0.000000 0.000000 0.000000 0.000000 -0.000000 -3.856930 92.065600 -1.563370 86.947500 -1.523210 3.550210 15.735700 0.000005 -0.000001 70.820500 84.455200 -65.817700 8.984550 -0.406207 -0.000000 2.901660 -3.851440 10.096100 16.377300 -0.000001 -0.000001 2.156930 -1.304880 -0.656133 6.456720 -0.000001 -0.000000 -1.163650 -1.865870 13.674100 12.994200 -0.242716 4.980390 -84.750600 -10.431900 -63.095700 5.348090 -0.000007 -0.000001 -58.037300 -60.814200 -72.119400 24.328600 0.000019 0.000005 1.875860 4.415850 -23.044100 22.291600 -0.000001 0.000005 18.644500 5.484130 -5.907710 12.994500 -0.242716 -4.980390 90.878200 -2.372700 -69.681500 -5.348130 -0.000001 -0.000004 -61.941700 66.458600 13.393400 -24.328900 0.000322 -0.000009 20.548900 1.645510 -85.620400 -22.291500 -0.000108 -0.000004 25.610700 5.667180 -16.965600 -2.192480 -6.469440 -0.000000 -166.006000 -17.346200 -2.136020 39.081100 -0.000007 -0.000012 -0.159521 0.439348 19.955400 40.985400 -0.000006 -0.000013 -9.085980 -2.783560 -61.327700 11.754300 -0.000000 0.000003 -0.000098 -0.001007 -16.616200 -2.192510 6.469440 -0.000001 177.059000 22.572700 178.888000 -39.081100 -0.002282 -0.040193 -0.081712 0.232734 20.070600 -40.985400 0.000008 0.000006 -3.032370 1.266670 -63.706500 -11.754300 -0.000006 -0.000006 -0.003399 -0.045035 -18.404700
0.000000 0.000000 0.000000 0.000000 0.000000 -0.000000 -3.853630 92.063300 -1.581210 86.947700 -1.549420 3.469420 15.735700 0.000005 -0.000001 71.283800 84.467200 -66.271400 8.984550 -0.406207 -0.000000 2.904190 -3.759310 10.112900 16.377300 -0.000001 -0.000001 2.097590 -1.354390 -0.439218 6.456720 -0.000001 -0.000000 -1.253160 -1.995050 13.594100 12.994200 -0.242716 4.980390 -84.652400 -10.581400 -62.990200 5.348090 -0.000007 -0.000001 -63.186800 -61.166700 -73.522200 24.328600 0.000019 0.000005 2.192330 5.939740 -20.301300 22.291600 -0.000001 0.000005 19.174200 5.450190 -4.646910 12.994500 -0.242716 -4.980390 90.916000 -2.469700 -69.642100 -5.348130 -0.000001 -0.000004 -61.984100 66.568800 13.331500 -24.328900 0.000322 -0.000009 20.612000 1.683210 -85.535400 -22.291500 -0.000108 -0.000004 25.746300 5.667590 -17.023000 -2.192480 -6.469440 -0.000000 -166.032000 -17.360000 -2.234760 39.081100 -0.000007 -0.000012 -0.160032 0.440200 19.978600 40.985400 -0.000006 -0.000013 -9.094040 -2.826800 -61.334100 11.754300 -0.000000 0.000003 -0.000090 -0.000938 -16.613600 -2.192510 6.469440 -0.000001 177.104000 22.554100 178.763000 -39.081100 -0.002282 -0.040193 -0.081575 0.231884 20.108600 -40.985400 0.000008 0.000006 -3.025340 1.255840 -63.711200 -11.754300 -0.000006 -0.000006 -0.003362 -0.044635 -18.388500
0.000000 0.000000 0.000000 0.000000 0.000000 -0.000000 -3.864700 92.067600 -1.578390 86.917600 -1.603590 3.432210 15.735700 0.000005 -0.000001 71.987200 84.493600 -66.978400 8.984550 -0.406207 -0.000000 2.889810 -3.614660 10.101600 16.377300 -0.000001 -0.000001 2.091750 -1.402880 -0.220126 6.456720 -0.000001 -0.000000 -1.205550 -2.134270 13.642700 12.994200 -0.242716 4.980390 -84.546100 -10.818200 -63.038000 5.348090 -0.000007 -0.000001 -66.911100 -61.589200 -73.981800 24.328600 0.000019 0.000005 2.248190 6.548470 -18.995100 22.291600 -0.000001 0.000005 19.600700 5.430810 -3.967210 12.994500 -0.242716 -4.980390 90.926800 -2.512780 -69.745500 -5.348130 -0.000001 -0.000004 -62.353400 66.534300 13.690400 -24.328900 0.000322 -0.000009 20.748200 1.695690 -85.534500 -22.291500 -0.000108 -0.000004 25.787200 5.667200 -16.968400 -2.192480 -6.469440 -0.000000 -165.999000 -17.420300 -2.247600 39.081100 -0.000007 -0.000012 -0.160625 0.442326 19.958100 40.985400 -0.000006 -0.000013 -9.097630 -2.815500 -61.322400 11.754300 -0.000000 0.000003 -0.000096 -0.000993 -16.615700 -2.192510 6.469440 -0.000001 177.164000 22.452200 178.747000 -39.081100 -0.002282 -0.040193 -0.081616 0.232770 20.047100 -40.985400 0.000008 0.000006 -3.028740 1.222340 -63.683200 -11.754300 -0.000006 -0.000006 -0.003143 -0.042209 -18.289700
0.000000 0.000000 0.000000 0.000000 0.000000 -0.000000 -3.883880 92.055800 -1.563010 86.900800 -1.545500 3.435550 15.735700 0.000005 -0.000001 72.611600 84.523000 -67.621700 8.984550 -0.406207 -0.000000 2.863460 -3.483310 10.059300 16.377300 -0.000001 -0.000001 2.133860 -1.468190 0.049492 6.456720 -0.000001 -0.000000 -1.120960 -2.272150 13.662700 12.994200 -0.242716 4.980390 -84.498800 -10.912700 -63.035600 5.348090 -0.000007 -0.000001 -68.489700 -61.723600 -73.716800 24.328600 0.000019 0.000005 2.115690 6.428060 -18.261200 22.291600 -0.000001 0.000005 19.718600 5.428510 -3.888090 12.994500 -0.242716 -4.980390 90.942300 -2.560270 -69.785700 -5.348130 -0.000001 -0.000004 -62.589300 66.474600 13.926100 -24.328900 0.000322 -0.000009 20.801600 1.706050 -85.519900 -22.291500 -0.000108 -0.000004 25.670200 5.667390 -16.995000 -2.192480 -6.469440 -0.000000 -165.967000 -17.355700 -2.286700 39.081100 -0.000007 -0.000012 -0.163066 0.447235 20.032500 40.985400 -0.000006 -0.000013 -9.118560 -2.803830 -61.363100 11.754300 -0.000000 0.000003 -0.000097 -0.001004 -16.616100 -2.192510 6.469440 -0.000001 177.198000 22.421700 178.730000 -39.081100 -0.002282 -0.040193 -0.082319 0.233774 20.119700 -40.985400 0.000008 0.000006 -3.032650 1.143050 -63.745700 -11.754300 -0.000006 -0.000006 -0.003464 -0.045740 -18.433500
